# LUKESKYWALKER_JEDI_PC
v -0.035608 0.284086 0.309136 
v 0.035609 0.284086 0.309136 
v 0.151151 0.239132 0.290939 
v 0.032232 0.284086 0.230789 
v 0.139521 0.239595 0.238520 
v 0.093399 0.266550 0.303718 
v 0.085860 0.266781 0.234216 
v -0.033791 0.284086 0.269962 
v 0.000000 0.284086 0.270799 
v 0.000000 0.284086 0.230789 
v 0.033791 0.284086 0.269962 
v 0.000000 0.284086 0.310532 
v 0.114899 0.254109 0.266854 
v 0.112691 0.253188 0.236368 
v 0.144787 0.239363 0.262985 
v 0.122275 0.252841 0.295584 
v 0.089291 0.266665 0.268967 
v 0.000000 0.284086 0.197629 
v 0.030453 0.284086 0.196892 
v 0.108495 0.253391 0.202439 
v 0.134410 0.239910 0.204217 
v 0.082415 0.266938 0.200116 
v 0.060679 0.278201 0.270008 
v 0.059046 0.277978 0.232503 
v 0.064504 0.277863 0.307837 
v 0.056505 0.278038 0.198794 
vn -0.102363 1.000000 0.000000 
vn 0.110236 1.000000 0.000000 
vn 0.433070 0.913385 -0.078741 
vn 0.118110 1.000000 0.000000 
vn 0.456692 0.897637 -0.062993 
vn 0.401574 0.929133 -0.039370 
vn 0.425196 0.921259 -0.031496 
vn -0.102363 1.000000 0.000000 
vn 0.000000 1.000000 0.000000 
vn 0.007874 1.000000 0.000000 
vn 0.110236 1.000000 0.000000 
vn 0.000000 1.000000 0.000000 
vn 0.440944 0.905511 -0.062993 
vn 0.456692 0.897637 -0.055119 
vn 0.440944 0.905511 -0.070867 
vn 0.433070 0.913385 -0.062993 
vn 0.409448 0.921259 -0.039370 
vn 0.007874 1.000000 0.000000 
vn 0.118110 1.000000 0.000000 
vn 0.464566 0.897637 -0.031496 
vn 0.472440 0.897637 -0.031496 
vn 0.433070 0.913385 -0.023622 
vn 0.299212 0.968503 -0.015748 
vn 0.307086 0.960629 -0.015748 
vn 0.299212 0.968503 -0.015748 
vn 0.314960 0.960629 -0.015748 
vt 0.694645 -0.491654 
vt 0.808512 -0.491654 
vt 0.993248 -0.462235 
vt 0.803491 -0.385364 
vt 0.976286 -0.395852 
vt 0.900912 -0.484304 
vt 0.889862 -0.390013 
vt 0.697155 -0.438509 
vt 0.751579 -0.439644 
vt 0.751578 -0.385364 
vt 0.806001 -0.438509 
vt 0.751578 -0.491654 
vt 0.936630 -0.434292 
vt 0.933074 -0.392933 
vt 0.984767 -0.429043 
vt 0.947080 -0.473270 
vt 0.895387 -0.437159 
vt 0.751578 -0.340376 
vt 0.801223 -0.339376 
vt 0.928446 -0.346903 
vt 0.970693 -0.349315 
vt 0.885931 -0.343751 
vt 0.849306 -0.438571 
vt 0.846676 -0.387689 
vt 0.854712 -0.487979 
vt 0.843693 -0.341957 
f -17/-17/-17 -18/-18/-18 -23/-23/-23
f -16/-16/-16 -23/-23/-23 -18/-18/-18
f -23/-23/-23 -16/-16/-16 -3/-3/-3
f -4/-4/-4 -3/-3/-3 -16/-16/-16
f -3/-3/-3 -4/-4/-4 -20/-20/-20
f -10/-10/-10 -20/-20/-20 -4/-4/-4
f -20/-20/-20 -10/-10/-10 -13/-13/-13
f -14/-14/-14 -13/-13/-13 -10/-10/-10
f -23/-23/-23 -8/-8/-8 -17/-17/-17
f -9/-9/-9 -17/-17/-17 -8/-8/-8
f -1/-1/-1 -3/-3/-3 -5/-5/-5
f -20/-20/-20 -5/-5/-5 -3/-3/-3
f -5/-5/-5 -20/-20/-20 -7/-7/-7
f -13/-13/-13 -7/-7/-7 -20/-20/-20
f -6/-6/-6 -7/-7/-7 -22/-22/-22
f -13/-13/-13 -22/-22/-22 -7/-7/-7
f -22/-22/-22 -13/-13/-13 -12/-12/-12
f -14/-14/-14 -12/-12/-12 -13/-13/-13
f -12/-12/-12 -14/-14/-14 -11/-11/-11
f -10/-10/-10 -11/-11/-11 -14/-14/-14
f -11/-11/-11 -10/-10/-10 -21/-21/-21
f -4/-4/-4 -21/-21/-21 -10/-10/-10
f -21/-21/-21 -4/-4/-4 -2/-2/-2
f -16/-16/-16 -2/-2/-2 -4/-4/-4
f -2/-2/-2 -16/-16/-16 -25/-25/-25
f -18/-18/-18 -25/-25/-25 -16/-16/-16
f -25/-25/-25 -18/-18/-18 -15/-15/-15
f -19/-19/-19 -15/-15/-15 -18/-18/-18
f -15/-15/-15 -19/-19/-19 -26/-26/-26
f -24/-24/-24 -12/-12/-12 -11/-11/-11
