# LUKESKYWALKER_JEDI_PC
v -0.151203 0.239132 0.290690 
v -0.035608 0.284086 0.309136 
v -0.139574 0.239595 0.238271 
v -0.032232 0.284086 0.230789 
v 0.032232 0.284086 0.230789 
v -0.093388 0.266550 0.303004 
v -0.085921 0.266781 0.233503 
v -0.060691 0.278201 0.269668 
v -0.059077 0.277978 0.232146 
v -0.033791 0.284086 0.269962 
v -0.064498 0.277863 0.307480 
v -0.089316 0.266665 0.268254 
v 0.000000 0.284086 0.270799 
v 0.000000 0.284086 0.230789 
v -0.056536 0.278038 0.198436 
v -0.030454 0.284086 0.196892 
v -0.082476 0.266938 0.199403 
v 0.030453 0.284086 0.196892 
v 0.059046 0.277978 0.232503 
v 0.056505 0.278038 0.198794 
v -0.114935 0.254109 0.266344 
v -0.112748 0.253188 0.235887 
v -0.122295 0.252841 0.295103 
v -0.144839 0.239363 0.262736 
v -0.108551 0.253391 0.201959 
v -0.134462 0.239910 0.203968 
vn -0.425197 0.913385 -0.078741 
vn -0.102363 1.000000 0.000000 
vn -0.448819 0.897637 -0.062993 
vn -0.110237 1.000000 0.000000 
vn 0.118110 1.000000 0.000000 
vn -0.393701 0.929133 -0.039370 
vn -0.417323 0.921259 -0.031496 
vn -0.291339 0.968503 -0.015748 
vn -0.299213 0.960629 -0.015748 
vn -0.102363 1.000000 0.000000 
vn -0.291339 0.968503 -0.015748 
vn -0.401575 0.921259 -0.039370 
vn 0.000000 1.000000 0.000000 
vn 0.007874 1.000000 0.000000 
vn -0.307087 0.960629 -0.015748 
vn -0.110237 1.000000 0.000000 
vn -0.425197 0.913385 -0.023622 
vn 0.118110 1.000000 0.000000 
vn 0.307086 0.960629 -0.015748 
vn 0.314960 0.960629 -0.015748 
vn -0.433071 0.905511 -0.062993 
vn -0.448819 0.897637 -0.055119 
vn -0.425197 0.913385 -0.062993 
vn -0.433071 0.905511 -0.070867 
vn -0.464567 0.897637 -0.031496 
vn -0.464567 0.897637 -0.031496 
vt 0.509825 -0.461897 
vt 0.694645 -0.491654 
vt 0.526786 -0.395514 
vt 0.699666 -0.385364 
vt 0.803491 -0.385364 
vt 0.602263 -0.483336 
vt 0.613197 -0.389045 
vt 0.653832 -0.438110 
vt 0.656431 -0.387205 
vt 0.697155 -0.438509 
vt 0.648454 -0.487495 
vt 0.607730 -0.436191 
vt 0.751579 -0.439644 
vt 0.751578 -0.385364 
vt 0.659415 -0.341471 
vt 0.701934 -0.339376 
vt 0.617127 -0.342783 
vt 0.801223 -0.339376 
vt 0.846676 -0.387689 
vt 0.843693 -0.341957 
vt 0.566468 -0.433600 
vt 0.569992 -0.392280 
vt 0.556044 -0.472617 
vt 0.518305 -0.428706 
vt 0.574620 -0.346251 
vt 0.532380 -0.348977 
f -6/-6/-6 -4/-4/-4 -15/-15/-15
f -21/-21/-21 -15/-15/-15 -4/-4/-4
f -15/-15/-15 -21/-21/-21 -19/-19/-19
f -16/-16/-16 -19/-19/-19 -21/-21/-21
f -19/-19/-19 -16/-16/-16 -17/-17/-17
f -25/-25/-25 -17/-17/-17 -16/-16/-16
f -26/-26/-26 -4/-4/-4 -3/-3/-3
f -6/-6/-6 -3/-3/-3 -4/-4/-4
f -3/-3/-3 -6/-6/-6 -5/-5/-5
f -15/-15/-15 -5/-5/-5 -6/-6/-6
f -5/-5/-5 -15/-15/-15 -20/-20/-20
f -19/-19/-19 -20/-20/-20 -15/-15/-15
f -20/-20/-20 -19/-19/-19 -18/-18/-18
f -17/-17/-17 -18/-18/-18 -19/-19/-19
f -18/-18/-18 -17/-17/-17 -23/-23/-23
f -14/-14/-14 -23/-23/-23 -17/-17/-17
f -23/-23/-23 -14/-14/-14 -13/-13/-13
f -24/-24/-24 -3/-3/-3 -5/-5/-5
f -1/-1/-1 -24/-24/-24 -2/-2/-2
f -5/-5/-5 -2/-2/-2 -24/-24/-24
f -2/-2/-2 -5/-5/-5 -10/-10/-10
f -20/-20/-20 -10/-10/-10 -5/-5/-5
f -10/-10/-10 -20/-20/-20 -12/-12/-12
f -18/-18/-18 -12/-12/-12 -20/-20/-20
f -12/-12/-12 -18/-18/-18 -11/-11/-11
f -23/-23/-23 -11/-11/-11 -18/-18/-18
f -22/-22/-22 -8/-8/-8 -9/-9/-9
f -7/-7/-7 -9/-9/-9 -8/-8/-8
