# LUKESKYWALKER_JEDI_PC
v -0.132627 0.240225 0.169666 
v -0.029417 0.284086 0.162994 
v -0.127609 0.243654 0.101886 
v -0.026976 0.283902 0.095727 
v -0.032958 0.281975 -0.008012 
v -0.021014 0.282539 0.039784 
v -0.051936 0.281975 0.017485 
v -0.073543 0.281975 -0.012892 
v -0.024764 0.284316 0.062886 
v -0.105829 0.267352 0.040152 
v -0.081040 0.267096 0.165303 
v -0.077302 0.268719 0.098608 
v -0.065293 0.279048 0.051504 
v -0.056536 0.278038 0.198436 
v -0.055228 0.278136 0.164148 
v -0.030454 0.284086 0.196892 
v -0.082476 0.266938 0.199403 
v -0.054165 0.278512 0.130791 
v -0.052139 0.278855 0.097168 
v -0.028473 0.283994 0.129361 
v -0.079961 0.267907 0.131955 
v 0.000000 0.283902 0.095727 
v -0.000021 0.283475 0.051946 
v -0.000026 0.284316 0.062867 
v -0.023207 0.283428 0.051335 
v 0.000000 0.282539 0.039784 
v -0.043150 0.281824 0.042561 
v -0.036475 0.282257 0.028634 
v -0.045028 0.281682 0.057195 
v -0.059431 0.280511 0.034494 
v -0.018238 0.282257 0.032054 
v -0.031920 0.282100 0.016806 
v -0.042912 0.281975 0.002429 
v -0.024210 0.281975 0.008156 
v -0.050854 0.281975 -0.014158 
v -0.056775 0.281975 -0.028887 
v -0.035868 0.281975 -0.024139 
v -0.062739 0.281975 0.002297 
v -0.000006 0.284102 0.079812 
v -0.026520 0.284109 0.079307 
v -0.052288 0.278343 0.078207 
v -0.073114 0.273883 0.075056 
v -0.108551 0.253391 0.201959 
v -0.106834 0.253661 0.167484 
v -0.134462 0.239910 0.203968 
v -0.105819 0.254856 0.134051 
v -0.102456 0.256186 0.100247 
v -0.131422 0.241940 0.135776 
v -0.099113 0.263337 0.074493 
v -0.119702 0.255503 0.071019 
v -0.085561 0.273200 0.045828 
v -0.077947 0.276995 0.023272 
v -0.090935 0.274664 0.013630 
vn -0.456693 0.897637 0.007874 
vn -0.110237 1.000000 0.000000 
vn -0.425197 0.905511 0.110236 
vn -0.102363 1.000000 0.000000 
vn 0.007874 1.000000 0.000000 
vn -0.007874 1.000000 -0.039370 
vn -0.055119 1.000000 0.023622 
vn -0.102363 1.000000 0.055118 
vn -0.062993 1.000000 -0.007874 
vn -0.314961 0.952755 0.141732 
vn -0.425197 0.913385 0.000000 
vn -0.385827 0.929133 0.055118 
vn -0.228347 0.984251 0.078740 
vn -0.307087 0.960629 -0.015748 
vn -0.307087 0.960629 0.000000 
vn -0.110237 1.000000 0.000000 
vn -0.425197 0.913385 -0.023622 
vn -0.299213 0.968503 0.000000 
vn -0.275591 0.976377 0.015748 
vn -0.102363 1.000000 0.000000 
vn -0.417323 0.921259 0.000000 
vn 0.000000 1.000000 0.007874 
vn 0.000000 1.000000 -0.070867 
vn 0.000000 1.000000 -0.031496 
vn -0.031496 1.000000 -0.055119 
vn 0.000000 1.000000 -0.055119 
vn -0.070867 1.000000 0.000000 
vn -0.023622 1.000000 0.000000 
vn -0.141733 0.999999 0.039370 
vn -0.149607 0.999999 0.047244 
vn 0.007874 1.000000 -0.023622 
vn 0.007874 1.000000 -0.007874 
vn 0.000000 1.000000 0.000000 
vn 0.007874 1.000000 0.000000 
vn 0.007874 1.000000 0.007874 
vn 0.000000 1.000000 0.007874 
vn 0.007874 1.000000 0.007874 
vn -0.094489 1.000000 0.047244 
vn 0.007874 1.000000 0.015748 
vn -0.094489 1.000000 0.023622 
vn -0.220473 0.984251 0.062992 
vn -0.314961 0.952755 0.125984 
vn -0.464567 0.897637 -0.031496 
vn -0.456693 0.897637 0.007874 
vn -0.464567 0.897637 -0.031496 
vn -0.448819 0.905511 0.007874 
vn -0.425197 0.913385 0.094488 
vn -0.448819 0.905511 0.015748 
vn -0.377953 0.921259 0.173228 
vn -0.377953 0.913385 0.204724 
vn -0.307087 0.960629 0.110236 
vn -0.228347 0.984251 0.078740 
vn -0.244095 0.976377 0.102362 
vt 0.537974 -0.302440 
vt 0.704201 -0.293389 
vt 0.542780 -0.210485 
vt 0.707439 -0.202130 
vt 0.698498 -0.061390 
vt 0.717735 -0.126233 
vt 0.667932 -0.095981 
vt 0.633133 -0.054770 
vt 0.711695 -0.157575 
vt 0.581134 -0.126733 
vt 0.621058 -0.296521 
vt 0.625095 -0.206038 
vt 0.646420 -0.142133 
vt 0.659415 -0.341471 
vt 0.662630 -0.294955 
vt 0.701934 -0.339376 
vt 0.617127 -0.342783 
vt 0.664532 -0.249700 
vt 0.666267 -0.204084 
vt 0.705820 -0.247759 
vt 0.623076 -0.251279 
vt 0.751578 -0.202130 
vt 0.751544 -0.142734 
vt 0.751537 -0.157549 
vt 0.714715 -0.141904 
vt 0.751578 -0.126233 
vt 0.683038 -0.130001 
vt 0.692833 -0.111107 
vt 0.679058 -0.149854 
vt 0.657176 -0.119057 
vt 0.722205 -0.115746 
vt 0.700170 -0.095059 
vt 0.683215 -0.078686 
vt 0.712586 -0.083325 
vt 0.670563 -0.056183 
vt 0.661129 -0.036201 
vt 0.693812 -0.039511 
vt 0.650533 -0.075376 
vt 0.751569 -0.180538 
vt 0.709567 -0.179853 
vt 0.668748 -0.178360 
vt 0.635757 -0.174086 
vt 0.574620 -0.346251 
vt 0.579516 -0.299480 
vt 0.532380 -0.348977 
vt 0.581521 -0.254122 
vt 0.583937 -0.208262 
vt 0.540377 -0.256463 
vt 0.594572 -0.173322 
vt 0.561957 -0.168609 
vt 0.613777 -0.134433 
vt 0.627764 -0.103832 
vt 0.607134 -0.090751 
f -19/-19/-19 -18/-18/-18 -16/-16/-16
f -46/-46/-46 -16/-16/-16 -18/-18/-18
f -16/-16/-16 -46/-46/-46 -1/-1/-1
f -16/-16/-16 -47/-47/-47 -19/-19/-19
f -21/-21/-21 -19/-19/-19 -47/-47/-47
f -19/-19/-19 -21/-21/-21 -17/-17/-17
f -49/-49/-49 -17/-17/-17 -21/-21/-21
f -48/-48/-48 -23/-23/-23 -26/-26/-26
f -22/-22/-22 -26/-26/-26 -23/-23/-23
f -45/-45/-45 -14/-14/-14 -30/-30/-30
f -15/-15/-15 -30/-30/-30 -14/-14/-14
f -25/-25/-25 -29/-29/-29 -27/-27/-27
f -41/-41/-41 -24/-24/-24 -3/-3/-3
f -2/-2/-2 -3/-3/-3 -24/-24/-24
f -7/-7/-7 -12/-12/-12 -5/-5/-5
f -35/-35/-35 -42/-42/-42 -36/-36/-36
f -33/-33/-33 -36/-36/-36 -42/-42/-42
f -36/-36/-36 -33/-33/-33 -39/-39/-39
f -43/-43/-43 -39/-39/-39 -33/-33/-33
f -39/-39/-39 -43/-43/-43 -40/-40/-40
f -37/-37/-37 -40/-40/-40 -43/-43/-43
f -11/-11/-11 -37/-37/-37 -10/-10/-10
f -43/-43/-43 -10/-10/-10 -37/-37/-37
f -10/-10/-10 -43/-43/-43 -8/-8/-8
f -33/-33/-33 -8/-8/-8 -43/-43/-43
f -8/-8/-8 -33/-33/-33 -7/-7/-7
f -42/-42/-42 -7/-7/-7 -33/-33/-33
f -7/-7/-7 -42/-42/-42 -12/-12/-12
f -35/-35/-35 -12/-12/-12 -42/-42/-42
f -12/-12/-12 -35/-35/-35 -13/-13/-13
f -14/-14/-14 -13/-13/-13 -35/-35/-35
f -13/-13/-13 -14/-14/-14 -25/-25/-25
f -45/-45/-45 -25/-25/-25 -14/-14/-14
f -25/-25/-25 -45/-45/-45 -29/-29/-29
f -30/-30/-30 -29/-29/-29 -45/-45/-45
f -29/-29/-29 -30/-30/-30 -31/-31/-31
f -9/-9/-9 -11/-11/-11 -53/-53/-53
f -10/-10/-10 -53/-53/-53 -11/-11/-11
f -53/-53/-53 -10/-10/-10 -6/-6/-6
f -8/-8/-8 -6/-6/-6 -10/-10/-10
f -6/-6/-6 -8/-8/-8 -51/-51/-51
f -7/-7/-7 -51/-51/-51 -8/-8/-8
f -51/-51/-51 -7/-7/-7 -4/-4/-4
f -5/-5/-5 -4/-4/-4 -7/-7/-7
f -4/-4/-4 -5/-5/-5 -3/-3/-3
f -12/-12/-12 -3/-3/-3 -5/-5/-5
f -3/-3/-3 -12/-12/-12 -41/-41/-41
f -25/-25/-25 -41/-41/-41 -12/-12/-12
f -41/-41/-41 -25/-25/-25 -24/-24/-24
f -27/-27/-27 -24/-24/-24 -25/-25/-25
f -24/-24/-24 -27/-27/-27 -26/-26/-26
f -29/-29/-29 -26/-26/-26 -27/-27/-27
f -26/-26/-26 -29/-29/-29 -48/-48/-48
f -31/-31/-31 -48/-48/-48 -29/-29/-29
f -48/-48/-48 -31/-31/-31 -28/-28/-28
f -40/-40/-40 -38/-38/-38 -39/-39/-39
f -52/-52/-52 -39/-39/-39 -38/-38/-38
f -39/-39/-39 -52/-52/-52 -36/-36/-36
f -34/-34/-34 -36/-36/-36 -52/-52/-52
f -36/-36/-36 -34/-34/-34 -35/-35/-35
f -50/-50/-50 -35/-35/-35 -34/-34/-34
f -35/-35/-35 -50/-50/-50 -14/-14/-14
f -32/-32/-32 -14/-14/-14 -50/-50/-50
f -14/-14/-14 -32/-32/-32 -15/-15/-15
f -25/-25/-25 -12/-12/-12 -13/-13/-13
f -20/-20/-20 -49/-49/-49 -22/-22/-22
f -21/-21/-21 -22/-22/-22 -49/-49/-49
f -22/-22/-22 -21/-21/-21 -26/-26/-26
f -47/-47/-47 -26/-26/-26 -21/-21/-21
f -26/-26/-26 -47/-47/-47 -24/-24/-24
f -16/-16/-16 -24/-24/-24 -47/-47/-47
f -24/-24/-24 -16/-16/-16 -2/-2/-2
f -1/-1/-1 -2/-2/-2 -16/-16/-16
f -2/-2/-2 -1/-1/-1 -3/-3/-3
f -44/-44/-44 -3/-3/-3 -1/-1/-1
f -3/-3/-3 -44/-44/-44 -4/-4/-4
